<?xml version="1.0" encoding="utf-8"?>
<!-- Generator: Adobe Illustrator 19.2.0, SVG Export Plug-In . SVG Version: 6.00 Build 0)  -->
<!DOCTYPE svg PUBLIC "-//W3C//DTD SVG 1.1//EN" "http://www.w3.org/Graphics/SVG/1.1/DTD/svg11.dtd">
<svg version="1.1" id="Layer_1" xmlns="http://www.w3.org/2000/svg" xmlns:xlink="http://www.w3.org/1999/xlink" x="0px" y="0px"
	 viewBox="0 0 231.9 27.3" style="enable-background:new 0 0 231.9 27.3;" xml:space="preserve">
<style type="text/css">
	.st0{fill:#414042;}
	.st1{fill:#F5C400;}
</style>
<g>
	<g>
		<path class="st0" d="M11.4,20.3c1.6,0,3-0.1,4.1-0.3c1.1-0.2,2.1-0.5,2.8-0.9c0.7-0.4,1.3-1,1.7-1.7c0.4-0.7,0.7-1.5,0.9-2.5
			L23.7,0h8.5l-2.7,14.9c-1.4,8.3-7.8,12.4-19.3,12.4H0l6.4-7H11.4z"/>
		<path class="st0" d="M42.5,27.3l6.4-7h11.6c0,0-0.6-1-1-1.8c-0.4-0.7-0.7-1.5-1.1-2.1l-3.6-7.2l-16,18.1h-10L50.8,2.6
			c0.7-0.8,1.6-1.5,2.5-2.1c1-0.6,2.1-0.9,3.5-0.9c1.3,0,2.3,0.3,3,0.9c0.7,0.6,1.4,1.3,1.8,2.2l12.7,24.7H42.5z"/>
		<path class="st0" d="M109.5,0l-6.8,7.1H93l-3.6,20.2h-8.5l3.6-20.2H71.6L78.4,0H109.5z"/>
		<path class="st0" d="M142.3,20.3l-6.7,7h-26.3L114.1,0h31.6L139,7.1h-17.7l-0.6,3.3h21.6l-5.9,6.2h-16.8l-0.7,3.7H142.3z"/>
		<path class="st0" d="M189.6,0l-10,7.9c-1.1,0.9-2.1,1.6-2.8,2.2c-0.8,0.6-1.4,1.1-1.9,1.5c-0.5,0.4-1,0.7-1.3,1
			c-0.4,0.3-0.7,0.5-0.9,0.7c0.2,0.2,0.5,0.4,0.8,0.8c0.4,0.4,0.8,0.8,1.3,1.3c0.5,0.5,1,1.1,1.6,1.8c0.6,0.6,1.2,1.3,1.8,2l7.3,8.2
			h-11.9l-7.7-9l-11.2,9h-10.5l10.3-8.2c1.2-1,2.2-1.8,3-2.4c0.8-0.6,1.5-1.2,2-1.6c0.5-0.4,1-0.7,1.3-1c0.3-0.2,0.7-0.5,1-0.7
			c-0.2-0.2-0.5-0.4-0.7-0.6c-0.2-0.2-0.6-0.6-1-1c-0.4-0.4-0.9-1-1.5-1.6c-0.6-0.6-1.3-1.5-2.2-2.5L149.5,0h11.7l7.2,8.5L178.7,0
			H189.6z"/>
	</g>
	<g>
		<path class="st1" d="M193.9,27.3h-3.7l2.1-12h3.7L193.9,27.3z"/>
		<path class="st1" d="M209.3,27.5c-0.3,0-0.5,0-0.7-0.1c-0.2-0.1-0.4-0.3-0.7-0.5l-6.2-6.6l-1.2,7.1h-3.4l1.7-10
			c0.1-0.4,0.2-0.7,0.3-1c0.2-0.3,0.3-0.5,0.6-0.7c0.2-0.2,0.5-0.3,0.7-0.4c0.3-0.1,0.5-0.1,0.8-0.1c0.2,0,0.5,0,0.7,0.1
			c0.2,0.1,0.5,0.3,0.7,0.5l6.2,6.6l1.3-7.1h3.4l-1.8,9.9c-0.1,0.4-0.2,0.7-0.4,1c-0.2,0.3-0.4,0.5-0.6,0.7
			c-0.2,0.2-0.5,0.3-0.7,0.4C209.8,27.5,209.6,27.5,209.3,27.5z"/>
		<path class="st1" d="M230.3,24.3l-2.9,3.1h-6c-0.9,0-1.8-0.1-2.6-0.4c-0.8-0.3-1.4-0.6-2-1.1c-0.5-0.5-1-1-1.3-1.7
			c-0.3-0.6-0.5-1.3-0.5-2.1c0-1,0.2-1.9,0.7-2.7c0.4-0.8,1-1.5,1.8-2.1c0.8-0.6,1.6-1.1,2.7-1.4c1-0.3,2.1-0.5,3.3-0.5h8.4
			l-2.9,3.1h-6c-0.5,0-1.1,0.1-1.6,0.3c-0.5,0.2-0.9,0.4-1.3,0.7c-0.4,0.3-0.7,0.7-0.9,1c-0.2,0.4-0.3,0.8-0.3,1.3
			c0,0.4,0.1,0.7,0.2,1c0.2,0.3,0.4,0.6,0.6,0.8c0.3,0.2,0.6,0.4,1,0.5c0.4,0.1,0.8,0.2,1.2,0.2H230.3z"/>
	</g>
</g>
<polygon class="st1" points="13.8,0 0,0 0,15.1 "/>
</svg>
